<?xml version="1.0" standalone="no"?><!DOCTYPE svg PUBLIC "-//W3C//DTD SVG 1.1//EN" "http://www.w3.org/Graphics/SVG/1.1/DTD/svg11.dtd"><svg t="1504763599685" class="icon" style="" viewBox="0 0 1024 1024" version="1.1" xmlns="http://www.w3.org/2000/svg" p-id="4261" xmlns:xlink="http://www.w3.org/1999/xlink" width="64" height="64"><defs><style type="text/css"></style></defs><path d="M204.8 0h614.4c113.105455 0 204.8 91.694545 204.8 204.8v614.4c0 113.105455-91.694545 204.8-204.8 204.8H204.8c-113.105455 0-204.8-91.694545-204.8-204.8V204.8C0 91.694545 91.694545 0 204.8 0z" fill="#30CE39" p-id="4262"></path><path d="M680.103564 550.381382a24.157091 24.157091 0 0 1-24.203637-24.110546 24.129164 24.129164 0 0 1 24.203637-24.036072 24.138473 24.138473 0 0 1 24.212945 24.036072 24.157091 24.157091 0 0 1-24.212945 24.110546z m-124.499782 0a24.157091 24.157091 0 0 1-24.212946-24.110546 24.138473 24.138473 0 0 1 24.212946-24.036072c13.339927 0 24.203636 10.752 24.203636 24.036072a24.157091 24.157091 0 0 1-24.203636 24.110546zM791.272727 584.638836c0-77.907782-70.516364-141.693673-159.883636-147.186036a235.361745 235.361745 0 0 0-12.557964-0.381673c-95.269236 0-172.460218 66.075927-172.460218 147.567709 0 12.288 1.787345 24.185018 5.12 35.551419 18.543709 64.335127 86.416291 112.016291 167.340218 112.01629 27.526982 0 53.517964-5.492364 76.557964-15.341381l38.7072 26.018909s10.323782 7.102836 9.309091-6.562909l-10.938182-40.736582C768.549236 668.5696 791.272727 628.884945 791.272727 584.638836zM354.760145 418.676364a24.119855 24.119855 0 0 1-24.203636-24.026764 24.147782 24.147782 0 0 1 24.203636-24.110545 24.110545 24.110545 0 0 1 24.203637 24.110545 24.082618 24.082618 0 0 1-24.203637 24.026764z m152.427055-48.137309c13.349236 0 24.203636 10.761309 24.203636 24.110545a24.119855 24.119855 0 0 1-24.203636 24.026764 24.082618 24.082618 0 0 1-24.203636-24.026764 24.110545 24.110545 0 0 1 24.203636-24.110545z m111.643927 54.244072c3.714327 0 7.363491 0.158255 11.012655 0.316509C615.647418 342.611782 532.638255 279.272727 432.3328 279.272727 322.094545 279.272727 232.727273 355.812073 232.727273 450.113164c0 52.577745 27.769018 99.579345 71.3728 130.941672l-14.7456 54.709528s-5.036218 18.152727 14.047418 9.997963l54.998109-36.938472a227.486255 227.486255 0 0 0 73.9328 12.213527c2.2528 0 4.421818-0.158255 6.590836-0.158255a137.458036 137.458036 0 0 1-4.887272-36.240291c0-88.129164 82.925382-159.855709 184.794763-159.855709z" fill="#FFFFFF" p-id="4263"></path></svg>