<?xml version="1.0" standalone="no"?><!DOCTYPE svg PUBLIC "-//W3C//DTD SVG 1.1//EN" "http://www.w3.org/Graphics/SVG/1.1/DTD/svg11.dtd"><svg t="1505703215827" class="icon" style="" viewBox="0 0 1451 1024" version="1.1" xmlns="http://www.w3.org/2000/svg" p-id="3261" xmlns:xlink="http://www.w3.org/1999/xlink" width="90.6875" height="64"><defs><style type="text/css"></style></defs><path d="M953.90464 544C953.90464 537.333333 951.76192 531.857067 947.476053 527.5712L696.047787 276.142933C691.76192 271.857067 686.285653 269.714347 679.618987 269.714347 672.95232 269.714347 667.476053 271.857067 663.190187 276.142933L412.476117 526.857387C407.714219 532.571307 405.333291 538.285653 405.333291 544 405.333291 550.666667 407.476139 556.142933 411.761835 560.4288 416.047573 564.71424 421.523755 566.857387 428.190421 566.857387L588.190293 566.857387 588.190293 818.285739C588.190293 824.47616 590.45248 829.833344 594.976 834.357077 599.499947 838.880939 604.857173 841.142827 611.04768 841.142827L748.190293 841.142827C754.3808 841.142827 759.738027 838.880939 764.261973 834.357077 768.785493 829.833344 771.04768 824.47616 771.04768 818.285739L771.04768 566.857387 931.04768 566.857387C937.238187 566.857387 942.594987 564.5952 947.118933 560.071253 951.64288 555.547733 953.90464 550.190507 953.90464 544L953.90464 544ZM1411.04768 749.714261C1411.04768 825.428565 1384.261973 890.071467 1330.69056 943.642837 1277.119147 997.214272 1212.47616 1024 1136.762027 1024L359.618987 1024C271.523755 1024 196.166613 992.690428 133.547563 930.071467 70.928512 867.452373 39.618987 792.095232 39.618987 704 39.618987 642.095317 56.285653 584.95232 89.618987 532.571307 122.95232 480.19072 167.714219 440.904533 223.904683 414.714453 222.95232 400.4288 222.476117 390.190507 222.476117 384 222.476117 283.04768 258.190421 196.857173 329.618987 125.42848 401.047552 53.999787 487.237973 18.285653 588.190293 18.285653 662.475947 18.285653 730.45248 38.999893 792.11904 80.4288 853.7856 121.85728 898.666667 176.857173 926.761813 245.42848 960.571307 215.904853 1000.095147 201.142613 1045.333333 201.142613 1095.80928 201.142613 1138.904747 218.999893 1174.61888 254.714453 1210.33344 290.428587 1228.190293 333.524053 1228.190293 384 1228.190293 420.19072 1218.428587 453.047467 1198.904747 482.57152 1260.809387 497.333333 1311.64288 529.595307 1351.4048 579.357013 1391.16672 629.119061 1411.04768 685.904683 1411.04768 749.714261L1411.04768 749.714261Z" p-id="3262" fill="#1bb394"></path></svg>