<?xml version="1.0" standalone="no"?><!DOCTYPE svg PUBLIC "-//W3C//DTD SVG 1.1//EN" "http://www.w3.org/Graphics/SVG/1.1/DTD/svg11.dtd"><svg t="1504768920709" class="icon" style="" viewBox="0 0 1024 1024" version="1.1" xmlns="http://www.w3.org/2000/svg" p-id="3587" xmlns:xlink="http://www.w3.org/1999/xlink" width="128" height="128"><defs><style type="text/css"></style></defs><path d="M745.4 557.3c-22.6 0-42.3 12.3-53 30.5h-0.1c-39.6 68.2-113.4 114-197.9 114-78.2 0-147.2-39.3-188.4-99.2l0.1-0.1c-6.2-9.1-9.9-20.2-9.9-32 0-31.5 25.6-57.1 57.1-57.1 19.6 0 36.9 9.9 47.2 25l0.1-0.1c20.7 29.6 55 49 93.8 49 63.2 0 114.4-51.2 114.4-114.4s-51.2-114.4-114.4-114.4c-39.9 0-75 20.5-95.4 51.5-10.2 15.8-27.8 26.2-48 26.2-31.5 0-57.1-25.6-57.1-57.1 0-12.5 4-24 10.8-33.4l-0.4-0.3c41-61.2 110.8-101.5 190-101.5 84.8 0 158.7 46.1 198.2 114.6l0.2-0.1c10.7 18.1 30.3 30.3 52.8 30.3 33.9 0 61.3-27.4 61.3-61.3 0-11.5-3.2-22.2-8.7-31.4-29.8-51.3-72.9-95.8-127.9-127.6-168-96.9-383.1-39.4-480.4 128.7C92.6 465.2 150 680.4 318.2 777.6c168.1 97.2 383.3 39.8 480.5-128.4 5.2-9 8.2-19.4 8.2-30.5 0-33.9-27.5-61.4-61.5-61.4z" fill="#35A866" p-id="3588"></path></svg>