<?xml version="1.0" standalone="no"?><!DOCTYPE svg PUBLIC "-//W3C//DTD SVG 1.1//EN" "http://www.w3.org/Graphics/SVG/1.1/DTD/svg11.dtd"><svg t="1505204208838" class="icon" style="" viewBox="0 0 1026 1024" version="1.1" xmlns="http://www.w3.org/2000/svg" p-id="2357" xmlns:xlink="http://www.w3.org/1999/xlink" width="16.03125" height="16"><defs><style type="text/css"></style></defs><path d="M512.57 1023.716C229.927 1023.716 0 794.108 0 511.854 0 229.607 229.928 0 512.57 0c282.648 0 512.576 229.607 512.576 511.854 0 282.254-229.928 511.862-512.577 511.862z m0-950.265c-242.078 0-439.016 196.664-439.016 438.403 0 241.709 196.938 438.41 439.015 438.41 242.046 0 439.023-196.701 439.023-438.41 0-241.74-196.977-438.403-439.023-438.403z m51.552 439.977l158.314-156.373c14.385-14.182 14.496-37.328 0.29-51.693-14.207-14.372-37.418-14.483-51.77-0.297l-158.531 156.56-156.112-156.376c-14.318-14.292-37.459-14.37-51.772-0.071-14.317 14.259-14.351 37.4-0.071 51.698l155.894 156.15-157.18 155.275c-14.385 14.226-14.498 37.328-0.29 51.7 7.173 7.24 16.587 10.855 26.033 10.855a36.625 36.625 0 0 0 25.737-10.566l157.398-155.453 158.675 158.968c7.14 7.162 16.514 10.744 25.922 10.744 9.375 0 18.71-3.582 25.849-10.672 14.313-14.26 14.353-37.367 0.073-51.699l-158.459-158.75z" fill="#d81e06" p-id="2358"></path></svg>